<svg xmlns="http://www.w3.org/2000/svg" xmlns:xlink="http://www.w3.org/1999/xlink" viewBox="30.0118 146.3515 997.0335 287.1578" width="997.0335" height="287.1578" preserveAspectRatio="none"><defs/><style>.a6izo4zJpcolorb7992eb8-46cc-42e0-a9cc-aa964f7b2fcf {fill:#69C7F2;fill-opacity:1;}.aD6z1nYkhcolorb7992eb8-46cc-42e0-a9cc-aa964f7b2fcf {fill:#69C7F2;fill-opacity:1;}.afipxSTeCAcolors-0b7992eb8-46cc-42e0-a9cc-aa964f7b2fcf {fill:#2AFBFF;fill-opacity:1;}.afipxSTeCAcolors-1b7992eb8-46cc-42e0-a9cc-aa964f7b2fcf {fill:#4FC8B0;fill-opacity:1;}.afipxSTeCAcolors-2b7992eb8-46cc-42e0-a9cc-aa964f7b2fcf {fill:#3BF8E6;fill-opacity:1;}.afipxSTeCAcolors-3b7992eb8-46cc-42e0-a9cc-aa964f7b2fcf {fill:black;fill-opacity:1;}.afipxSTeCAcolors-4b7992eb8-46cc-42e0-a9cc-aa964f7b2fcf {fill:#8BD9F3;fill-opacity:1;}.afipxSTeCAcolors-5b7992eb8-46cc-42e0-a9cc-aa964f7b2fcf {fill:#BEBCBC;fill-opacity:1;}.afipxSTeCAcolors-6b7992eb8-46cc-42e0-a9cc-aa964f7b2fcf {fill:#A4A1A1;fill-opacity:1;}.afipxSTeCAcolors-7b7992eb8-46cc-42e0-a9cc-aa964f7b2fcf {fill:#217490;fill-opacity:1;}.aSRNC2jdZ00filter-floob7992eb8-46cc-42e0-a9cc-aa964f7b2fcf {flood-color:#2AFBFF;flood-opacity:0.5;}.icon3-strb7992eb8-46cc-42e0-a9cc-aa964f7b2fcf {stroke:#2F90B0;stroke-opacity:1;}</style><defs> <filter x="0" y="0" width="987.5999999999999" height="856.8" id="b7992eb8-46cc-42e0-a9cc-aa964f7b2fcfSRNC2jdZ0" filterUnits="userSpaceOnUse" primitiveUnits="userSpaceOnUse" color-interpolation-filters="sRGB"> <feMerge><feMergeNode in="SourceGraphic"/></feMerge> </filter></defs><defs/><g opacity="1" transform="rotate(0 261.5907 377.9304)"> <svg width="589.3713" height="55.5789" x="261.5907" y="377.9304" version="1.1" preserveAspectRatio="none" viewBox="3.76 -29.6 398.71999999999997 37.6"> <g transform="matrix(1 0 0 1 0 0)" class="a6izo4zJpcolorb7992eb8-46cc-42e0-a9cc-aa964f7b2fcf"><path id="id-b7992eb8-46cc-42e0-a9cc-aa964f7b2fcf6izo4zJp19" d="M18.72-14.88Q21.12-14.28 22.64-12.48Q24.16-10.68 24.16-7.80L24.16-7.80Q24.16-3.88 21.74-1.94Q19.32 0 15.72 0L15.72 0L4.96 0Q4.44 0 4.10-0.34Q3.76-0.68 3.76-1.20L3.76-1.20L3.76-26.80Q3.76-27.32 4.10-27.66Q4.44-28 4.96-28L4.96-28L15.56-28Q18.92-28 20.82-26.16Q22.72-24.32 22.72-21.12L22.72-21.12Q22.72-19 21.68-17.32Q20.64-15.64 18.72-14.88L18.72-14.88ZM20.16-20.92Q20.16-23.12 18.86-24.38Q17.56-25.64 15.24-25.64L15.24-25.64L6.32-25.64L6.32-15.64L15.24-15.64Q17.40-15.68 18.78-17.04Q20.16-18.40 20.16-20.92L20.16-20.92ZM15.60-2.36Q18.28-2.36 19.94-3.72Q21.60-5.08 21.60-7.80L21.60-7.80Q21.60-10.60 19.90-11.92Q18.20-13.24 15.52-13.24L15.52-13.24L6.32-13.24L6.32-2.36L15.60-2.36Z M47-20.44Q47.52-20.44 47.86-20.08Q48.20-19.72 48.20-19.20L48.20-19.20L48.20-1.20Q48.20-0.68 47.86-0.34Q47.52 0 47 0L47 0Q46.48 0 46.14-0.34Q45.80-0.68 45.80-1.20L45.80-1.20L45.80-3.88Q44.80-2.08 42.80-0.84Q40.80 0.40 38.44 0.40L38.44 0.40Q35.76 0.40 33.62-1Q31.48-2.40 30.26-4.84Q29.04-7.28 29.04-10.32L29.04-10.32Q29.04-13.36 30.28-15.78Q31.52-18.20 33.66-19.56Q35.80-20.92 38.40-20.92L38.40-20.92Q40.80-20.92 42.80-19.76Q44.80-18.60 45.80-16.72L45.80-16.72L45.80-19.20Q45.80-19.72 46.14-20.08Q46.48-20.44 47-20.44L47-20.44ZM38.68-1.84Q40.76-1.84 42.42-2.94Q44.08-4.04 45.02-5.98Q45.96-7.92 45.96-10.32L45.96-10.32Q45.96-12.64 45.02-14.56Q44.08-16.48 42.42-17.58Q40.76-18.68 38.68-18.68L38.68-18.68Q36.60-18.68 34.94-17.60Q33.28-16.52 32.34-14.62Q31.40-12.72 31.40-10.32L31.40-10.32Q31.40-7.92 32.32-5.98Q33.24-4.04 34.90-2.94Q36.56-1.84 38.68-1.84L38.68-1.84Z M70.44-20.80Q70.96-20.80 71.30-20.46Q71.64-20.12 71.64-19.60L71.64-19.60L71.64-1.96Q71.64 1.20 70.40 3.44Q69.16 5.68 66.96 6.84Q64.76 8 62.00 8L62.00 8Q60.32 8 58.86 7.64Q57.40 7.28 56.44 6.68L56.44 6.68Q55.60 6.16 55.60 5.52L55.60 5.52Q55.60 5.44 55.68 5.12L55.68 5.12Q55.80 4.72 56.08 4.52Q56.36 4.32 56.68 4.32L56.68 4.32Q56.92 4.32 57.16 4.44L57.16 4.44Q59.72 5.84 62.04 5.84L62.04 5.84Q65.36 5.84 67.30 3.76Q69.24 1.68 69.24-1.92L69.24-1.92L69.24-3.32Q68.24-1.64 66.36-0.62Q64.48 0.40 62.28 0.40L62.28 0.40Q58.80 0.40 57.00-1.68Q55.20-3.76 55.20-7.32L55.20-7.32L55.20-19.60Q55.20-20.12 55.54-20.46Q55.88-20.80 56.40-20.80L56.40-20.80Q56.92-20.80 57.26-20.46Q57.60-20.12 57.60-19.60L57.60-19.60L57.60-7.68Q57.60-4.80 58.86-3.32Q60.12-1.84 62.80-1.84L62.80-1.84Q64.44-1.84 65.94-2.66Q67.44-3.48 68.34-4.82Q69.24-6.16 69.24-7.68L69.24-7.68L69.24-19.60Q69.24-20.12 69.58-20.46Q69.92-20.80 70.44-20.80L70.44-20.80Z M112.72-1.60Q112.80-1.28 112.80-1.12L112.80-1.12Q112.80-0.60 112.44-0.28Q112.08 0.04 111.60 0.04L111.60 0.04Q111.20 0.04 110.90-0.18Q110.60-0.40 110.44-0.76L110.44-0.76L107.44-8.08L94.44-8.08L91.48-0.76Q91.16 0.04 90.40 0.04L90.40 0.04Q89.84 0.04 89.56-0.24Q89.28-0.52 89.24-1L89.24-1L89.24-1.12Q89.24-1.36 89.28-1.48L89.28-1.48L99.84-27.32Q100.16-28.12 101.04-28.12L101.04-28.12Q101.44-28.12 101.74-27.90Q102.04-27.68 102.20-27.32L102.20-27.32L112.72-1.60ZM100.88-24.12L95.36-10.44L106.48-10.44L100.88-24.12Z M127.88-20.92Q128.68-20.92 129.32-20.60Q129.96-20.28 129.96-19.64L129.96-19.64Q129.96-19.08 129.64-18.74Q129.32-18.40 128.88-18.40L128.88-18.40Q128.68-18.40 128.10-18.60Q127.52-18.80 127.00-18.80L127.00-18.80Q125.52-18.80 124.06-17.66Q122.60-16.52 121.66-14.72Q120.72-12.92 120.72-11.08L120.72-11.08L120.72-1.20Q120.72-0.68 120.38-0.34Q120.04 0 119.52 0L119.52 0Q119.00 0 118.66-0.34Q118.32-0.68 118.32-1.20L118.32-1.20L118.32-19.12Q118.32-19.64 118.66-19.98Q119.00-20.32 119.52-20.32L119.52-20.32Q120.04-20.32 120.38-19.98Q120.72-19.64 120.72-19.12L120.72-19.12L120.72-15.60Q121.64-17.88 123.50-19.38Q125.36-20.88 127.88-20.92L127.88-20.92Z M151.32-11.40Q151.32-10.92 150.96-10.58Q150.60-10.24 150.12-10.24L150.12-10.24L135-10.24Q135-7.84 135.98-5.94Q136.96-4.04 138.78-2.94Q140.60-1.84 143.08-1.84L143.08-1.84Q145-1.84 146.52-2.64Q148.04-3.44 148.96-4.68L148.96-4.68Q149.40-5.04 149.80-5.04L149.80-5.04Q150.20-5.04 150.52-4.72Q150.84-4.40 150.84-4L150.84-4Q150.84-3.56 150.44-3.16L150.44-3.16Q149.16-1.60 147.22-0.60Q145.28 0.40 143.12 0.40L143.12 0.40Q140.04 0.40 137.68-0.92Q135.32-2.24 134-4.62Q132.68-7 132.68-10.12L132.68-10.12Q132.68-13.40 133.98-15.86Q135.28-18.32 137.44-19.62Q139.60-20.92 142.04-20.92L142.04-20.92Q144.44-20.92 146.54-19.80Q148.64-18.68 149.96-16.52Q151.28-14.36 151.32-11.40L151.32-11.40ZM142.04-18.60Q139.72-18.60 137.74-17Q135.76-15.40 135.20-12.40L135.20-12.40L148.84-12.40L148.84-12.72Q148.64-14.52 147.64-15.86Q146.64-17.20 145.14-17.90Q143.64-18.60 142.04-18.60L142.04-18.60Z M174.24-20.44Q174.76-20.44 175.10-20.08Q175.44-19.72 175.44-19.20L175.44-19.20L175.44-1.20Q175.44-0.68 175.10-0.34Q174.76 0 174.24 0L174.24 0Q173.72 0 173.38-0.34Q173.04-0.68 173.04-1.20L173.04-1.20L173.04-3.88Q172.04-2.08 170.04-0.84Q168.04 0.40 165.68 0.40L165.68 0.40Q163 0.40 160.86-1Q158.72-2.40 157.50-4.84Q156.28-7.28 156.28-10.32L156.28-10.32Q156.28-13.36 157.52-15.78Q158.76-18.20 160.90-19.56Q163.04-20.92 165.64-20.92L165.64-20.92Q168.04-20.92 170.04-19.76Q172.04-18.60 173.04-16.72L173.04-16.72L173.04-19.20Q173.04-19.72 173.38-20.08Q173.72-20.44 174.24-20.44L174.24-20.44ZM165.92-1.84Q168-1.84 169.66-2.94Q171.32-4.04 172.26-5.98Q173.20-7.92 173.20-10.32L173.20-10.32Q173.20-12.64 172.26-14.56Q171.32-16.48 169.66-17.58Q168-18.68 165.92-18.68L165.92-18.68Q163.84-18.68 162.18-17.60Q160.52-16.52 159.58-14.62Q158.64-12.72 158.64-10.32L158.64-10.32Q158.64-7.92 159.56-5.98Q160.48-4.04 162.14-2.94Q163.80-1.84 165.92-1.84L165.92-1.84Z M216.08-25.92Q216.68-25.56 216.68-24.92L216.68-24.92Q216.68-24.56 216.40-24.12L216.40-24.12Q216.04-23.68 215.48-23.68L215.48-23.68Q215.16-23.68 214.84-23.88L214.84-23.88Q211.64-26 207.84-26L207.84-26Q204.60-26 201.98-24.48Q199.36-22.96 197.86-20.22Q196.36-17.48 196.36-14L196.36-14Q196.36-10.44 197.88-7.70Q199.40-4.96 202.02-3.46Q204.64-1.96 207.84-1.96L207.84-1.96Q211.64-1.96 214.80-4.04L214.80-4.04Q215.12-4.24 215.48-4.24L215.48-4.24Q216.04-4.24 216.40-3.76L216.40-3.76Q216.68-3.44 216.68-3L216.68-3Q216.68-2.36 216.12-2.04L216.12-2.04Q214.56-1 212.28-0.30Q210.00 0.40 207.84 0.40L207.84 0.40Q204.04 0.40 200.82-1.42Q197.60-3.24 195.70-6.52Q193.80-9.80 193.80-14L193.80-14Q193.80-18.04 195.68-21.34Q197.56-24.64 200.76-26.50Q203.96-28.36 207.84-28.36L207.84-28.36Q210.08-28.36 212.22-27.72Q214.36-27.08 216.08-25.92L216.08-25.92Z M238.96-20.44Q239.48-20.44 239.82-20.08Q240.16-19.72 240.16-19.20L240.16-19.20L240.16-1.20Q240.16-0.68 239.82-0.34Q239.48 0 238.96 0L238.96 0Q238.44 0 238.10-0.34Q237.76-0.68 237.76-1.20L237.76-1.20L237.76-3.88Q236.76-2.08 234.76-0.84Q232.76 0.40 230.40 0.40L230.40 0.40Q227.72 0.40 225.58-1Q223.44-2.40 222.22-4.84Q221.00-7.28 221.00-10.32L221.00-10.32Q221.00-13.36 222.24-15.78Q223.48-18.20 225.62-19.56Q227.76-20.92 230.36-20.92L230.36-20.92Q232.76-20.92 234.76-19.76Q236.76-18.60 237.76-16.72L237.76-16.72L237.76-19.20Q237.76-19.72 238.10-20.08Q238.44-20.44 238.96-20.44L238.96-20.44ZM230.64-1.84Q232.72-1.84 234.38-2.94Q236.04-4.04 236.98-5.98Q237.92-7.92 237.92-10.32L237.92-10.32Q237.92-12.64 236.98-14.56Q236.04-16.48 234.38-17.58Q232.72-18.68 230.64-18.68L230.64-18.68Q228.56-18.68 226.90-17.60Q225.24-16.52 224.30-14.62Q223.36-12.72 223.36-10.32L223.36-10.32Q223.36-7.92 224.28-5.98Q225.20-4.04 226.86-2.94Q228.52-1.84 230.64-1.84L230.64-1.84Z M257.20-20.92Q258.00-20.92 258.64-20.60Q259.28-20.28 259.28-19.64L259.28-19.64Q259.28-19.08 258.96-18.74Q258.64-18.40 258.20-18.40L258.20-18.40Q258.00-18.40 257.42-18.60Q256.84-18.80 256.32-18.80L256.32-18.80Q254.84-18.80 253.38-17.66Q251.92-16.52 250.98-14.72Q250.04-12.92 250.04-11.08L250.04-11.08L250.04-1.20Q250.04-0.68 249.70-0.34Q249.36 0 248.84 0L248.84 0Q248.32 0 247.98-0.34Q247.64-0.68 247.64-1.20L247.64-1.20L247.64-19.12Q247.64-19.64 247.98-19.98Q248.32-20.32 248.84-20.32L248.84-20.32Q249.36-20.32 249.70-19.98Q250.04-19.64 250.04-19.12L250.04-19.12L250.04-15.60Q250.96-17.88 252.82-19.38Q254.68-20.88 257.20-20.92L257.20-20.92Z M273.96-20.60Q276.60-20.60 278.76-19.26Q280.92-17.92 282.14-15.54Q283.36-13.16 283.36-10.20L283.36-10.20Q283.36-7.20 282.14-4.82Q280.92-2.44 278.78-1.08Q276.64 0.28 274.00 0.28L274.00 0.28Q271.68 0.28 269.74-0.82Q267.80-1.92 266.64-3.76L266.64-3.76L266.64 6.80Q266.64 7.32 266.30 7.66Q265.96 8 265.44 8L265.44 8Q264.92 8 264.58 7.66Q264.24 7.32 264.24 6.80L264.24 6.80L264.24-19.28Q264.24-19.80 264.58-20.16Q264.92-20.52 265.44-20.52L265.44-20.52Q265.96-20.52 266.30-20.16Q266.64-19.80 266.64-19.28L266.64-19.28L266.64-16.56Q267.68-18.44 269.64-19.52Q271.60-20.60 273.96-20.60L273.96-20.60ZM273.76-1.96Q275.84-1.96 277.50-3.02Q279.16-4.08 280.10-5.96Q281.04-7.84 281.04-10.20L281.04-10.20Q281.04-12.52 280.10-14.38Q279.16-16.24 277.50-17.30Q275.84-18.36 273.76-18.36L273.76-18.36Q271.64-18.36 269.96-17.32Q268.28-16.28 267.36-14.42Q266.44-12.56 266.44-10.20L266.44-10.20Q266.44-7.84 267.36-5.96Q268.28-4.08 269.96-3.02Q271.64-1.96 273.76-1.96L273.76-1.96Z M308.40-10.24Q308.40-7.24 307.08-4.80Q305.76-2.36 303.44-0.98Q301.12 0.40 298.28 0.40L298.28 0.40Q295.44 0.40 293.12-0.98Q290.80-2.36 289.48-4.80Q288.16-7.24 288.16-10.24L288.16-10.24Q288.16-13.24 289.48-15.68Q290.80-18.12 293.12-19.52Q295.44-20.92 298.28-20.92L298.28-20.92Q301.12-20.92 303.44-19.52Q305.76-18.12 307.08-15.68Q308.40-13.24 308.40-10.24L308.40-10.24ZM306.00-10.24Q306.00-12.64 305.00-14.56Q304.00-16.48 302.22-17.58Q300.44-18.68 298.28-18.68L298.28-18.68Q296.12-18.68 294.36-17.58Q292.60-16.48 291.58-14.56Q290.56-12.64 290.56-10.24L290.56-10.24Q290.56-7.88 291.58-5.96Q292.60-4.04 294.36-2.94Q296.12-1.84 298.28-1.84L298.28-1.84Q300.44-1.84 302.22-2.92Q304.00-4 305.00-5.92Q306.00-7.84 306.00-10.24L306.00-10.24Z M333.40-10.24Q333.40-7.24 332.08-4.80Q330.76-2.36 328.44-0.98Q326.12 0.40 323.28 0.40L323.28 0.40Q320.44 0.40 318.12-0.98Q315.80-2.36 314.48-4.80Q313.16-7.24 313.16-10.24L313.16-10.24Q313.16-13.24 314.48-15.68Q315.80-18.12 318.12-19.52Q320.44-20.92 323.28-20.92L323.28-20.92Q326.12-20.92 328.44-19.52Q330.76-18.12 332.08-15.68Q333.40-13.24 333.40-10.24L333.40-10.24ZM331.00-10.24Q331.00-12.64 330.00-14.56Q329.00-16.48 327.22-17.58Q325.44-18.68 323.28-18.68L323.28-18.68Q321.12-18.68 319.36-17.58Q317.60-16.48 316.58-14.56Q315.56-12.64 315.56-10.24L315.56-10.24Q315.56-7.88 316.58-5.96Q317.60-4.04 319.36-2.94Q321.12-1.84 323.28-1.84L323.28-1.84Q325.44-1.84 327.22-2.92Q329.00-4 330.00-5.92Q331.00-7.84 331.00-10.24L331.00-10.24Z M342.16-1.20Q342.16-0.68 341.82-0.34Q341.48 0 340.96 0L340.96 0Q340.44 0 340.10-0.34Q339.76-0.68 339.76-1.20L339.76-1.20L339.76-28.40Q339.76-28.92 340.10-29.26Q340.44-29.60 340.96-29.60L340.96-29.60Q341.48-29.60 341.82-29.26Q342.16-28.92 342.16-28.40L342.16-28.40L342.16-1.20Z M352.24-1.20Q352.24-0.68 351.90-0.34Q351.56 0 351.04 0L351.04 0Q350.52 0 350.18-0.34Q349.84-0.68 349.84-1.20L349.84-1.20L349.84-19.60Q349.84-20.12 350.18-20.46Q350.52-20.80 351.04-20.80L351.04-20.80Q351.56-20.80 351.90-20.46Q352.24-20.12 352.24-19.60L352.24-19.60L352.24-1.20ZM351.04-23.48Q350.24-23.48 349.80-23.86Q349.36-24.24 349.36-24.96L349.36-24.96L349.36-25.36Q349.36-26.08 349.82-26.46Q350.28-26.84 351.08-26.84L351.08-26.84Q352.68-26.84 352.68-25.36L352.68-25.36L352.68-24.96Q352.68-24.24 352.26-23.86Q351.84-23.48 351.04-23.48L351.04-23.48Z M369.32-20.92Q373.04-20.92 374.78-18.74Q376.52-16.56 376.52-12.96L376.52-12.96L376.52-1.20Q376.52-0.68 376.16-0.34Q375.80 0 375.32 0L375.32 0Q374.80 0 374.46-0.34Q374.12-0.68 374.12-1.20L374.12-1.20L374.12-12.84Q374.12-15.44 372.82-17.06Q371.52-18.68 368.80-18.68L368.80-18.68Q367.08-18.68 365.54-17.88Q364.00-17.08 363.04-15.74Q362.08-14.40 362.08-12.84L362.08-12.84L362.08-1.20Q362.08-0.68 361.74-0.34Q361.40 0 360.88 0L360.88 0Q360.36 0 360.02-0.34Q359.68-0.68 359.68-1.20L359.68-1.20L359.68-19.12Q359.68-19.64 360.02-19.98Q360.36-20.32 360.88-20.32L360.88-20.32Q361.40-20.32 361.74-19.98Q362.08-19.64 362.08-19.12L362.08-19.12L362.08-16.92Q363.16-18.64 365.18-19.78Q367.20-20.92 369.32-20.92L369.32-20.92Z M401.28-20.44Q401.80-20.44 402.14-20.10Q402.48-19.76 402.48-19.20L402.48-19.20L402.48-1.88Q402.48 1.24 401.18 3.46Q399.88 5.68 397.62 6.84Q395.36 8 392.44 8L392.44 8Q391.04 8 389.50 7.64Q387.96 7.28 386.86 6.72Q385.76 6.16 385.60 5.56L385.60 5.56Q385.32 5.28 385.32 4.92L385.32 4.92Q385.32 4.52 385.68 4.28L385.68 4.28Q385.84 4.16 386.08 4.16L386.08 4.16Q386.32 4.16 387.00 4.44L387.00 4.44L387.84 4.80Q390.32 5.76 392.48 5.76L392.48 5.76Q396.04 5.76 398.06 3.74Q400.08 1.72 400.08-1.72L400.08-1.72L400.08-4.20Q399.08-2.04 396.92-0.82Q394.76 0.40 392.40 0.40L392.40 0.40Q389.64 0.40 387.42-0.98Q385.20-2.36 383.92-4.80Q382.64-7.24 382.64-10.28L382.64-10.28Q382.64-13.28 383.92-15.72Q385.20-18.16 387.42-19.54Q389.64-20.92 392.36-20.92L392.36-20.92Q394.88-20.92 396.98-19.66Q399.08-18.40 400.08-16.64L400.08-16.64L400.08-19.20Q400.08-19.72 400.42-20.08Q400.76-20.44 401.28-20.44L401.28-20.44ZM392.60-1.84Q394.80-1.84 396.54-2.90Q398.28-3.96 399.26-5.90Q400.24-7.84 400.24-10.28L400.24-10.28Q400.24-12.72 399.26-14.64Q398.28-16.56 396.54-17.62Q394.80-18.68 392.60-18.68L392.60-18.68Q390.44-18.68 388.70-17.58Q386.96-16.48 385.98-14.56Q385.00-12.64 385.00-10.28L385.00-10.28Q385.00-7.88 385.98-5.96Q386.96-4.04 388.70-2.94Q390.44-1.84 392.60-1.84L392.60-1.84Z"/></g> </svg> </g><g opacity="1" transform="rotate(0 261.5907 146.3515)"> <svg width="765.4546" height="231.5789" x="261.5907" y="146.3515" version="1.1" preserveAspectRatio="none" viewBox="3.76 -28.12 93.08 28.16"> <g transform="matrix(1 0 0 1 0 0)" class="aD6z1nYkhcolorb7992eb8-46cc-42e0-a9cc-aa964f7b2fcf"><path id="id-b7992eb8-46cc-42e0-a9cc-aa964f7b2fcfD6z1nYkh4" d="M19.52-28Q20.04-28 20.38-27.66Q20.72-27.32 20.72-26.80L20.72-26.80Q20.72-26.32 20.38-25.98Q20.04-25.64 19.52-25.64L19.52-25.64L6.20-25.64L6.20-15.60L17.72-15.60Q18.24-15.60 18.58-15.28Q18.92-14.96 18.92-14.44L18.92-14.44Q18.92-13.92 18.58-13.60Q18.24-13.28 17.72-13.28L17.72-13.28L6.20-13.28L6.20-1.20Q6.20-0.68 5.86-0.34Q5.52 0 5 0L5 0Q4.44 0 4.10-0.34Q3.76-0.68 3.76-1.20L3.76-1.20L3.76-26.80Q3.76-27.32 4.10-27.66Q4.44-28 4.96-28L4.96-28L19.52-28Z M46-1.60Q46.08-1.28 46.08-1.12L46.08-1.12Q46.08-0.60 45.72-0.28Q45.36 0.04 44.88 0.04L44.88 0.04Q44.48 0.04 44.18-0.18Q43.88-0.40 43.72-0.76L43.72-0.76L40.72-8.08L27.72-8.08L24.76-0.76Q24.44 0.04 23.68 0.04L23.68 0.04Q23.12 0.04 22.84-0.24Q22.56-0.52 22.52-1L22.52-1L22.52-1.12Q22.52-1.36 22.56-1.48L22.56-1.48L33.12-27.32Q33.44-28.12 34.32-28.12L34.32-28.12Q34.72-28.12 35.02-27.90Q35.32-27.68 35.48-27.32L35.48-27.32L46-1.60ZM34.16-24.12L28.64-10.44L39.76-10.44L34.16-24.12Z M62.40-28Q66.24-28 68.86-26.10Q71.48-24.20 72.78-21.02Q74.08-17.84 74.08-14L74.08-14Q74.08-10.04 72.78-6.88Q71.48-3.72 68.86-1.86Q66.24 0 62.40 0L62.40 0L52.20 0Q51.68 0 51.34-0.34Q51.00-0.68 51.00-1.20L51.00-1.20L51.00-26.80Q51.00-27.32 51.34-27.66Q51.68-28 52.20-28L52.20-28L62.40-28ZM62.00-2.36Q66.80-2.36 69.16-5.58Q71.52-8.80 71.52-14L71.52-14Q71.52-17.24 70.52-19.86Q69.52-22.48 67.38-24.06Q65.24-25.64 62.00-25.64L62.00-25.64L53.52-25.64L53.52-2.36L62.00-2.36Z M95.64-2.36Q96.16-2.36 96.50-2Q96.84-1.64 96.84-1.16L96.84-1.16Q96.84-0.64 96.50-0.32Q96.16 0 95.64 0L95.64 0L80.96 0Q80.44 0 80.10-0.34Q79.76-0.68 79.76-1.20L79.76-1.20L79.76-26.80Q79.76-27.32 80.10-27.66Q80.44-28 80.96-28L80.96-28L95.64-28Q96.16-28 96.50-27.66Q96.84-27.32 96.84-26.80L96.84-26.80Q96.84-26.28 96.50-25.96Q96.16-25.64 95.64-25.64L95.64-25.64L82.28-25.64L82.28-15.60L93.84-15.60Q94.36-15.60 94.70-15.26Q95.04-14.92 95.04-14.40L95.04-14.40Q95.04-13.88 94.70-13.56Q94.36-13.24 93.84-13.24L93.84-13.24L82.28-13.24L82.28-2.36L95.64-2.36Z"/></g> </svg> </g><g opacity="1" transform="rotate(0 30.0118 146.3515)"> <svg width="231.5789" height="231.5789" x="30.0118" y="146.3515" version="1.1" preserveAspectRatio="none" viewBox="20 20 160 160"> <g transform="matrix(1 0 0 1 0 0)"><g><g><defs><path d="M135.5 20v44.5H180L135.5 20z" data-color="1" id="id-b7992eb8-46cc-42e0-a9cc-aa964f7b2fcffipxSTeCA2"/></defs><use class="afipxSTeCAcolors-0b7992eb8-46cc-42e0-a9cc-aa964f7b2fcf" xlink:href="#id-b7992eb8-46cc-42e0-a9cc-aa964f7b2fcffipxSTeCA2"/></g><g><defs><path d="M53.2 89.9L20 56.7V180h123.3l-33.2-33.2H53.2V89.9z" data-color="2" id="id-b7992eb8-46cc-42e0-a9cc-aa964f7b2fcffipxSTeCA3"/></defs><use class="afipxSTeCAcolors-1b7992eb8-46cc-42e0-a9cc-aa964f7b2fcf" xlink:href="#id-b7992eb8-46cc-42e0-a9cc-aa964f7b2fcffipxSTeCA3"/></g><g><defs><path d="M53.2 23.6V90l56.9 56.9h66.4L53.2 23.6z" data-color="1" id="id-b7992eb8-46cc-42e0-a9cc-aa964f7b2fcffipxSTeCA4"/></defs><use class="afipxSTeCAcolors-0b7992eb8-46cc-42e0-a9cc-aa964f7b2fcf" xlink:href="#id-b7992eb8-46cc-42e0-a9cc-aa964f7b2fcffipxSTeCA4"/></g><g><defs><path d="M53.2 146.8h56.9L53.2 89.9v56.9z" data-color="3" id="id-b7992eb8-46cc-42e0-a9cc-aa964f7b2fcffipxSTeCA5"/></defs><use class="afipxSTeCAcolors-2b7992eb8-46cc-42e0-a9cc-aa964f7b2fcf" xlink:href="#id-b7992eb8-46cc-42e0-a9cc-aa964f7b2fcffipxSTeCA5"/></g></g></g> </svg> </g></svg>